<?xml version="1.0" encoding="utf-8"?>
<!-- Generator: Adobe Illustrator 28.2.0, SVG Export Plug-In . SVG Version: 6.00 Build 0)  -->
<svg version="1.1" id="Layer_1" xmlns="http://www.w3.org/2000/svg" xmlns:xlink="http://www.w3.org/1999/xlink" x="0px" y="0px"
	 viewBox="0 0 612 792" style="enable-background:new 0 0 612 792;" xml:space="preserve">
<style type="text/css">
	.st0{fill:#6979BB;}
</style>
<g>
	<path class="st0" d="M447.76,396.89c-10.76-2.49-21.97-3.82-33.5-3.82c-42.77,0-81.29,18.17-108.26,47.21
		c-26.97-29.04-65.5-47.21-108.26-47.21c-11.53,0-22.74,1.32-33.5,3.82c18.03-61.24,74.67-105.96,141.76-105.96
		S429.74,335.64,447.76,396.89z"/>
	<path class="st0" d="M453.76,438.68c0,6.84-0.46,13.59-1.37,20.19c-12.16-3.24-24.94-4.96-38.12-4.96
		c-30.46,0-58.8,9.22-82.32,25.04c-2.08,1.39-4.13,2.85-6.13,4.35c-7.13,5.34-13.76,11.31-19.81,17.83
		c-6.05-6.51-12.68-12.48-19.81-17.83c-2.01-1.5-4.05-2.96-6.13-4.35c-23.52-15.82-51.86-25.04-82.32-25.04
		c-13.18,0-25.96,1.73-38.12,4.96c-0.91-6.6-1.37-13.35-1.37-20.19c0-8.39,0.7-16.62,2.04-24.62c11.96-3.12,24.5-4.79,37.45-4.79
		c38.95,0,74.39,15.07,100.78,39.71c2.59,2.41,5.08,4.92,7.48,7.51c2.4-2.59,4.89-5.09,7.48-7.51
		c26.4-24.63,61.83-39.71,100.78-39.71c12.94,0,25.49,1.67,37.45,4.79C453.06,422.06,453.76,430.29,453.76,438.68z"/>
</g>
</svg>
